<?xml version="1.0" encoding="UTF-8" standalone="no"?>
<!DOCTYPE svg PUBLIC "-//W3C//DTD SVG 1.1//EN" "http://www.w3.org/Graphics/SVG/1.1/DTD/svg11.dtd">
<svg version="1.1" xmlns="http://www.w3.org/2000/svg" xmlns:xlink="http://www.w3.org/1999/xlink" preserveAspectRatio="xMidYMid meet" viewBox="0 0 640 640" width="640" height="640"><defs><path d="M225 520.83C225.56 524.16 228.06 525.28 232.5 524.16C236.95 523.05 238.89 521.11 238.33 518.33C237.78 515.28 235.28 514.03 230.84 514.58C226.39 515.41 224.44 517.5 225 520.83ZM200.42 522.5C200.42 526.11 202.78 527.64 207.5 527.08C211.95 527.08 214.17 525.55 214.17 522.5C214.17 518.9 211.81 517.36 207.09 517.92C202.64 517.92 200.42 519.44 200.42 522.5ZM180 522.91C184.17 524.57 186.81 523.74 187.92 520.41C188.75 517.36 186.95 515.14 182.5 513.75C178.33 512.64 175.7 513.6 174.59 516.66C173.48 519.72 175.28 521.8 180 522.91Z" id="a5cSmZ7zn"></path><path d="M520 0C480 0 160 0 120 0C86.95 0 58.68 11.74 35.21 35.21C11.74 58.68 0 86.95 0 120C0 160 0 480 0 520C0 553.06 11.74 581.32 35.21 604.79C58.68 628.27 86.95 640 120 640C129.33 640 204 640 213.33 640C219.44 640 224.03 639.79 227.08 639.38C230.13 638.96 233.19 637.16 236.24 633.96C239.3 630.77 240.83 626.11 240.83 620C240.83 619.18 240.75 609.72 240.62 591.67C240.47 573.61 240.41 559.3 240.41 548.75C239.45 548.91 231.78 550.25 230.82 550.41C224.71 551.52 217 552.01 207.7 551.87C198.39 551.73 188.74 550.76 178.74 548.96C168.74 547.15 159.43 542.98 150.82 536.46C142.21 529.93 136.1 521.39 132.49 510.84C132.08 509.88 128.74 502.2 128.32 501.25C125.55 494.86 121.17 487.78 115.2 480.01C109.23 472.22 103.19 466.95 97.08 464.17C96.78 463.96 94.45 462.29 94.16 462.08C92.22 460.7 90.41 459.02 88.74 457.08C87.08 455.13 85.83 453.18 85 451.25C84.16 449.3 84.85 447.7 87.08 446.45C89.3 445.2 93.33 444.58 99.16 444.58C100 444.7 106.66 445.7 107.49 445.83C113.05 446.94 119.92 450.27 128.12 455.83C136.31 461.38 143.05 468.6 148.33 477.49C154.72 488.88 162.42 497.55 171.45 503.53C180.48 509.51 189.58 512.49 198.74 512.49C207.91 512.49 215.82 511.8 222.49 510.42C229.15 509.02 235.4 506.93 241.24 504.16C243.74 485.55 250.55 471.23 261.66 461.24C245.82 459.57 231.59 457.07 218.95 453.73C206.31 450.4 193.25 444.99 179.78 437.48C166.31 429.98 155.13 420.68 146.24 409.56C137.35 398.45 130.06 383.86 124.37 365.81C118.67 347.75 115.83 326.92 115.83 303.31C115.83 269.7 126.8 241.08 148.75 217.48C138.47 192.2 139.44 163.87 151.66 132.48C159.72 129.98 171.66 131.85 187.49 138.1C203.33 144.36 214.92 149.71 222.29 154.15C229.65 158.58 235.55 162.34 240 165.4C265.83 158.17 292.5 154.56 320 154.56C347.49 154.56 374.16 158.17 400 165.4C401.59 164.4 414.25 156.4 415.84 155.4C426.67 148.73 439.45 142.62 454.17 137.06C468.9 131.51 480.14 129.98 487.93 132.48C500.42 163.87 501.54 192.2 491.25 217.48C513.2 241.09 524.17 269.71 524.17 303.31C524.17 326.93 521.33 347.83 515.63 366.02C509.95 384.22 502.59 398.81 493.55 409.78C484.53 420.75 473.28 429.98 459.81 437.49C446.33 444.98 433.28 450.41 420.64 453.73C408 457.07 393.76 459.58 377.93 461.24C392.36 473.74 399.58 493.46 399.58 520.4C399.58 530.36 399.58 610.03 399.58 619.99C399.58 624.72 400.27 628.53 401.66 631.45C403.06 634.37 405.28 636.37 408.33 637.49C411.4 638.6 414.1 639.3 416.46 639.57C418.83 639.85 422.23 639.99 426.67 639.99C436.01 639.99 510.67 639.99 520.01 639.99C553.06 639.99 581.33 628.25 604.79 604.78C628.26 581.31 640 553.04 640 519.99C640 479.99 640 160 640 120C640 86.95 628.26 58.67 604.79 35.21C581.32 11.74 553.06 0 520 0Z" id="f9u6VjhkJ"></path><path d="M127.5 472.5C130.28 475.27 132.5 475.69 134.17 473.74C136.11 472.36 135.84 470.14 133.33 467.08C130.56 464.58 128.33 464.16 126.67 465.83C124.72 467.22 125 469.44 127.5 472.5ZM115.84 460.42C118.06 461.81 119.87 461.54 121.25 459.59C122.09 457.64 121.11 455.97 118.34 454.58C115.56 453.74 113.75 454.02 112.92 455.42C112.09 457.37 113.06 459.03 115.84 460.42ZM139.59 489.58C142.09 493.2 144.44 494.17 146.67 492.5C149.17 490.55 149.17 487.91 146.67 484.58C144.45 480.98 142.09 480.13 139.59 482.09C137.08 483.47 137.08 485.98 139.59 489.58ZM155.84 508.75C159.17 512.08 161.95 512.5 164.17 509.99C166.39 507.77 165.84 505.14 162.5 502.08C159.17 498.75 156.4 498.33 154.17 500.83C151.67 503.06 152.22 505.69 155.84 508.75Z" id="e1jT8NDfY9"></path></defs><g><g><g><use xlink:href="#a5cSmZ7zn" opacity="1" fill="#202020" fill-opacity="1"></use><g><use xlink:href="#a5cSmZ7zn" opacity="1" fill-opacity="0" stroke="#000000" stroke-width="1" stroke-opacity="0"></use></g></g><g><use xlink:href="#f9u6VjhkJ" opacity="1" fill="#202020" fill-opacity="1"></use><g><use xlink:href="#f9u6VjhkJ" opacity="1" fill-opacity="0" stroke="#000000" stroke-width="1" stroke-opacity="0"></use></g></g><g><use xlink:href="#e1jT8NDfY9" opacity="1" fill="#202020" fill-opacity="1"></use><g><use xlink:href="#e1jT8NDfY9" opacity="1" fill-opacity="0" stroke="#000000" stroke-width="1" stroke-opacity="0"></use></g></g></g></g></svg>