<?xml version="1.0" encoding="UTF-8" standalone="no"?>
<!DOCTYPE svg PUBLIC "-//W3C//DTD SVG 1.1//EN" "http://www.w3.org/Graphics/SVG/1.1/DTD/svg11.dtd">
<svg version="1.1" xmlns="http://www.w3.org/2000/svg" xmlns:xlink="http://www.w3.org/1999/xlink" preserveAspectRatio="xMidYMid meet" viewBox="0 0 640 640" width="640" height="640"><defs><path d="M91.75 356.32C91.75 356.59 91.68 356.98 91.55 357.51C91.42 358.04 91.35 358.43 91.35 358.7C91.35 377.75 91.35 530.19 91.35 549.24C91.35 556.12 93.86 562.08 98.89 567.1C103.92 572.13 109.87 574.65 116.75 574.65C126.92 574.65 177.73 574.65 269.18 574.65L269.18 422.22L370.82 422.22L370.82 574.66C462.28 574.66 513.09 574.66 523.25 574.66C530.13 574.66 536.09 572.14 541.11 567.1C546.14 562.09 548.66 556.12 548.66 549.24C548.66 530.19 548.66 377.75 548.66 358.7C548.66 357.64 548.52 356.84 548.26 356.32C533.04 343.78 456.96 281.06 320 168.15C183.05 281.06 106.96 343.78 91.75 356.32Z" id="d3TdK7Ng0X"></path><path d="M548.65 241.2C548.65 144.02 548.65 90.03 548.65 79.24C548.65 75.53 547.46 72.49 545.08 70.11C542.71 67.73 539.66 66.54 535.95 66.54C528.33 66.54 467.36 66.54 459.73 66.54C456.03 66.54 452.98 67.73 450.6 70.11C448.22 72.49 447.03 75.54 447.03 79.24C447.03 84.4 447.03 110.2 447.03 156.65C388.92 108.05 356.63 81.06 350.17 75.66C341.71 68.78 331.66 65.34 320.01 65.34C308.36 65.34 298.31 68.78 289.84 75.66C261.3 99.44 32.95 289.67 4.41 313.45C1.76 315.56 0.31 318.41 0.04 321.98C-0.22 325.55 0.7 328.67 2.82 331.32C5.28 334.25 24.97 357.75 27.43 360.69C29.55 363.07 32.33 364.53 35.77 365.06C38.95 365.33 42.12 364.4 45.3 362.28C63.61 347.01 155.18 270.66 320 133.22C484.82 270.66 576.39 347.01 594.7 362.28C596.83 364.13 599.6 365.05 603.04 365.05C603.16 365.05 604.11 365.05 604.23 365.05C607.67 364.53 610.44 363.06 612.57 360.69C615.03 357.75 634.72 334.25 637.18 331.31C639.3 328.66 640.23 325.55 639.95 321.98C639.68 318.41 638.23 315.57 635.59 313.45C623.99 303.82 595.02 279.73 548.65 241.2Z" id="d13RSKzQ45"></path></defs><g><g><g><use xlink:href="#d3TdK7Ng0X" opacity="1" fill="#ececec" fill-opacity="1"></use><g><use xlink:href="#d3TdK7Ng0X" opacity="1" fill-opacity="0" stroke="#000000" stroke-width="1" stroke-opacity="0"></use></g></g><g><use xlink:href="#d13RSKzQ45" opacity="1" fill="#ececec" fill-opacity="1"></use><g><use xlink:href="#d13RSKzQ45" opacity="1" fill-opacity="0" stroke="#000000" stroke-width="1" stroke-opacity="0"></use></g></g></g></g></svg>